<?xml version="1.0" encoding="utf-8"?>
<!-- Generator: Adobe Illustrator 15.0.0, SVG Export Plug-In . SVG Version: 6.00 Build 0)  -->
<!DOCTYPE svg PUBLIC "-//W3C//DTD SVG 1.0//EN" "http://www.w3.org/TR/2001/REC-SVG-20010904/DTD/svg10.dtd">
<svg version="1.0" id="Layer_1" xmlns="http://www.w3.org/2000/svg" xmlns:xlink="http://www.w3.org/1999/xlink" x="0px" y="0px"
	 width="566.93px" height="566.93px" viewBox="0 0 566.93 566.93" enable-background="new 0 0 566.93 566.93" xml:space="preserve">
<g>
	<g>
		<path fill="#A3A2A2" d="M283.433,91.412c-149.604,0-270.88,106.028-270.88,236.822c0,130.789,121.277,236.815,270.88,236.815
			c149.602,0,270.876-106.026,270.876-236.815C554.31,197.44,433.035,91.412,283.433,91.412z"/>
	</g>
</g>
<radialGradient id="SVGID_1_" cx="313.6943" cy="301.8662" r="26.5746" gradientTransform="matrix(2.2026 0 0 1.6047 -406.7419 -247.9799)" gradientUnits="userSpaceOnUse">
	<stop  offset="0" style="stop-color:#FFFFFF"/>
	<stop  offset="0.9818" style="stop-color:#F29192"/>
</radialGradient>
<path fill="url(#SVGID_1_)" d="M340.245,260.338c0,24.279-24.444,43.966-54.598,43.966s-54.598-19.688-54.598-43.966
	s24.444-43.963,54.598-43.963S340.245,236.06,340.245,260.338z"/>
<radialGradient id="SVGID_2_" cx="302.3584" cy="131.4092" r="26.5751" gradientTransform="matrix(2.756 0 0 -2.0573 -549.8588 762.3525)" gradientUnits="userSpaceOnUse">
	<stop  offset="0" style="stop-color:#FFFFFF"/>
	<stop  offset="0.9818" style="stop-color:#F29192"/>
</radialGradient>
<path fill="url(#SVGID_2_)" d="M353.596,461.324c0-31.126-30.589-56.367-68.32-56.367c-37.729,0-68.317,25.241-68.317,56.367
	c0,31.129,30.589,56.365,68.317,56.365C323.007,517.689,353.596,492.453,353.596,461.324z"/>
<path fill="#CE1417" d="M356.988,439.474c0,27.858-32.108,50.441-71.711,50.441c-39.606,0-71.712-22.583-71.712-50.441
	c0-27.854,32.105-50.439,71.712-50.439C324.88,389.034,356.988,411.619,356.988,439.474z"/>
<path fill="#B0AEAE" d="M300.163,362.499c0,67.082-47.224,121.457-105.481,121.457c-58.257,0-105.484-54.375-105.484-121.457
	c0-67.076,47.227-121.455,105.484-121.455C252.939,241.044,300.163,295.423,300.163,362.499z"/>
<path fill="#020203" d="M360.614,181.167c8.295,16.707,4.718,34.824-7.979,40.468c-12.701,5.644-29.723-3.325-38.016-20.029
	c-8.301-16.708-4.729-34.823,7.969-40.466C335.29,155.495,352.313,164.461,360.614,181.167z"/>
<path fill="#020203" d="M256.239,203.452c-9.799,15.962-27.582,23.497-39.718,16.835c-12.136-6.666-14.029-25.007-4.234-40.969
	c9.798-15.962,27.578-23.5,39.712-16.836S266.034,187.489,256.239,203.452z"/>
<ellipse fill="#FDFDFD" cx="245.109" cy="176.82" rx="8.399" ry="7.947"/>
<ellipse fill="#FDFDFD" cx="333.306" cy="174.835" rx="8.399" ry="7.945"/>
<path fill="#BFBBBB" d="M173.223,114.497c0,0-39.389,37.256-91.806,86.836C29,250.914,27.668,159.606,26.268,103.989
	C24.867,48.373,2.466,3.35,20.667,7.323C38.867,11.295,142.124,19.542,173.223,114.497z"/>
<path fill="#BFBBBB" d="M392.964,110.523c0,0,39.387,37.258,91.805,86.837c52.417,49.58,53.748-41.728,55.15-97.344
	c1.399-55.617,23.8-100.64,5.599-96.667C527.318,7.323,424.062,15.568,392.964,110.523z"/>
<path fill="#FCE6E7" d="M414.74,132.982c0,0,17.082,16.157,39.815,37.658c22.73,21.501,23.308-18.096,23.914-42.214
	c0.609-24.118,10.32-43.644,2.428-41.92C473.009,88.228,428.229,91.805,414.74,132.982z"/>
<path fill="#FCE6E7" d="M152.885,134.968c0,0-17.081,16.157-39.813,37.657c-22.731,21.5-23.308-18.096-23.916-42.213
	c-0.607-24.119-10.321-43.643-2.428-41.92C94.62,90.216,139.399,93.791,152.885,134.968z"/>
<path fill="#7C7C7C" d="M232.51,131.611c0,0-41.151-9.737-41.151,38.923S198.58,131.611,232.51,131.611z"/>
<path fill="#7C7C7C" d="M336.258,131.611c0,0,41.147-9.737,41.147,38.923S370.186,131.611,336.258,131.611z"/>
<ellipse fill="#020203" cx="392.964" cy="392.5" rx="3.664" ry="3.465"/>
<ellipse fill="#020203" cx="356.83" cy="326.116" rx="3.664" ry="3.465"/>
<path fill="#020203" d="M418.407,333.048c0,1.913-1.641,3.463-3.667,3.463c-2.02,0-3.661-1.55-3.661-3.463s1.642-3.467,3.661-3.467
	C416.767,329.581,418.407,331.135,418.407,333.048z"/>
<path fill="#B0AEAE" d="M486.073,362.499c0,67.082-48.663,121.457-108.698,121.457c-60.03,0-108.697-54.375-108.697-121.457
	c0-67.076,48.667-121.455,108.697-121.455C437.41,241.044,486.073,295.423,486.073,362.499z"/>
<g>
	<g>
		<path fill="#7C7C7C" d="M176.082,322.382c-46.249-26.308-107.773-37.351-158.067-16.254c-1.246,0.522-0.104,1.146,0.76,0.783
			c49.552-20.786,110.253-9.49,155.768,16.398C175.085,323.619,176.87,322.83,176.082,322.382L176.082,322.382z"/>
	</g>
</g>
<g>
	<g>
		<path fill="#7C7C7C" d="M230.343,324.684c-23.981-19.981-50.561-37.093-78.925-50.154c-27.717-12.763-58.972-22.124-89.75-18.305
			c-0.965,0.12-1.578,1.31-0.244,1.145c30.958-3.841,62.102,5.994,89.921,18.804c27.735,12.771,53.772,29.759,77.209,49.288
			C229.109,325.923,230.915,325.16,230.343,324.684L230.343,324.684z"/>
	</g>
</g>
<g>
	<g>
		<path fill="#7C7C7C" d="M200.086,355.385c-19.336-10.927-41.802-14.68-63.66-16.573c-23.8-2.063-47.718-1.318-71.573-1.301
			c-0.398,0-2.199,0.78-1.255,0.779c22.311-0.017,44.624-0.569,66.904,0.94c23.136,1.568,47.306,5.248,67.763,16.809
			C198.749,356.313,200.321,355.518,200.086,355.385L200.086,355.385z"/>
	</g>
</g>
<ellipse fill="#020203" cx="199.114" cy="354.398" rx="3.664" ry="3.466"/>
<ellipse fill="#020203" cx="230.156" cy="326.116" rx="3.664" ry="3.465"/>
<ellipse fill="#020203" cx="175.378" cy="322.65" rx="3.664" ry="3.466"/>
<g>
	<g>
		<path fill="#7C7C7C" d="M381.589,320.536c45.489-25.877,106.062-36.903,155.549-16.144c0.572,0.24,2.338-0.593,1.539-0.928
			c-50.357-21.125-112.012-9.813-158.283,16.509C379.259,320.619,380.969,320.889,381.589,320.536L381.589,320.536z"/>
	</g>
</g>
<g>
	<g>
		<path fill="#7C7C7C" d="M327.636,322.667c23.41-19.506,49.332-36.237,76.949-49.138c27.675-12.928,58.967-22.569,89.801-18.744
			c0.788,0.098,2.035-1.001,0.734-1.163c-30.9-3.833-62.005,5.725-89.864,18.368c-28.484,12.927-55.176,30.301-79.185,50.304
			C325.2,323.021,327.123,323.094,327.636,322.667L327.636,322.667z"/>
	</g>
</g>
<g>
	<g>
		<path fill="#7C7C7C" d="M357.865,353.144c20.244-11.438,44.023-14.858,66.888-16.511c22.196-1.604,44.466-0.951,66.696-0.935
			c0.398,0,2.2-0.778,1.256-0.779c-23.94-0.018-47.891-0.645-71.781,1.308c-22.133,1.808-44.983,5.822-64.535,16.87
			C355.569,353.56,357.52,353.339,357.865,353.144L357.865,353.144z"/>
	</g>
</g>
<path fill="#020203" d="M353.522,351.807c0,1.915,1.642,3.466,3.669,3.466c2.022,0,3.659-1.551,3.659-3.466
	c0-1.913-1.637-3.466-3.659-3.466C355.164,348.341,353.522,349.894,353.522,351.807z"/>
<ellipse fill="#020203" cx="326.146" cy="323.524" rx="3.664" ry="3.466"/>
<path fill="#020203" d="M377.258,320.059c0,1.916,1.641,3.466,3.669,3.466c2.022,0,3.659-1.55,3.659-3.466
	c0-1.913-1.637-3.466-3.659-3.466C378.898,316.593,377.258,318.146,377.258,320.059z"/>
</svg>
